<svg width="30" height="75" viewBox="0 0 30 75" fill="none" xmlns="http://www.w3.org/2000/svg">
<rect width="30" height="75" fill="#FFA4A4"/>
<path d="M18.872 14.2173H17.2782C17.2328 13.956 17.149 13.7244 17.0268 13.5227C16.9047 13.3182 16.7527 13.1449 16.5708 13.0028C16.389 12.8608 16.1816 12.7543 15.9487 12.6832C15.7186 12.6094 15.47 12.5724 15.2029 12.5724C14.7285 12.5724 14.3081 12.6918 13.9416 12.9304C13.5751 13.1662 13.2882 13.5128 13.0808 13.9702C12.8734 14.4247 12.7697 14.9801 12.7697 15.6364C12.7697 16.304 12.8734 16.8665 13.0808 17.3239C13.291 17.7784 13.5779 18.1222 13.9416 18.3551C14.3081 18.5852 14.7271 18.7003 15.1987 18.7003C15.46 18.7003 15.7044 18.6662 15.9316 18.598C16.1618 18.527 16.3677 18.4233 16.5495 18.2869C16.7342 18.1506 16.889 17.983 17.014 17.7841C17.1419 17.5852 17.2299 17.358 17.2782 17.1023L18.872 17.1108C18.8123 17.5256 18.6831 17.9148 18.4842 18.2784C18.2882 18.642 18.0311 18.9631 17.7129 19.2415C17.3947 19.517 17.0226 19.733 16.5964 19.8892C16.1703 20.0426 15.6973 20.1193 15.1774 20.1193C14.4103 20.1193 13.7257 19.9418 13.1234 19.5866C12.5211 19.2315 12.0467 18.7188 11.7001 18.0483C11.3535 17.3778 11.1802 16.5739 11.1802 15.6364C11.1802 14.696 11.3549 13.892 11.7044 13.2244C12.0538 12.554 12.5297 12.0412 13.1319 11.6861C13.7342 11.331 14.416 11.1534 15.1774 11.1534C15.6632 11.1534 16.1149 11.2216 16.5325 11.358C16.9501 11.4943 17.3223 11.6946 17.649 11.9588C17.9757 12.2202 18.2441 12.5412 18.4544 12.9219C18.6674 13.2997 18.8066 13.7315 18.872 14.2173ZM18.5854 26.2727V35H17.1792L13.0669 29.0554H12.9945V35H11.4135V26.2727H12.8283L16.9363 32.2216H17.013V26.2727H18.5854ZM19.0126 45.6364C19.0126 46.5767 18.8365 47.3821 18.4842 48.0526C18.1348 48.7202 17.6575 49.2315 17.0524 49.5866C16.4501 49.9418 15.7669 50.1193 15.0027 50.1193C14.2385 50.1193 13.5538 49.9418 12.9487 49.5866C12.3464 49.2287 11.8691 48.7159 11.5169 48.0483C11.1674 47.3778 10.9927 46.5739 10.9927 45.6364C10.9927 44.696 11.1674 43.892 11.5169 43.2244C11.8691 42.554 12.3464 42.0412 12.9487 41.6861C13.5538 41.331 14.2385 41.1534 15.0027 41.1534C15.7669 41.1534 16.4501 41.331 17.0524 41.6861C17.6575 42.0412 18.1348 42.554 18.4842 43.2244C18.8365 43.892 19.0126 44.696 19.0126 45.6364ZM17.4231 45.6364C17.4231 44.9744 17.3194 44.4162 17.112 43.9616C16.9075 43.5043 16.6234 43.1591 16.2598 42.9261C15.8961 42.6903 15.4771 42.5724 15.0027 42.5724C14.5282 42.5724 14.1092 42.6903 13.7456 42.9261C13.3819 43.1591 13.0964 43.5043 12.889 43.9616C12.6845 44.4162 12.5822 44.9744 12.5822 45.6364C12.5822 46.2983 12.6845 46.858 12.889 47.3153C13.0964 47.7699 13.3819 48.1151 13.7456 48.3509C14.1092 48.5838 14.5282 48.7003 15.0027 48.7003C15.4771 48.7003 15.8961 48.5838 16.2598 48.3509C16.6234 48.1151 16.9075 47.7699 17.112 47.3153C17.3194 46.858 17.4231 46.2983 17.4231 45.6364ZM11.5163 57.598V56.2727H18.4794V57.598H15.782V65H14.2138V57.598H11.5163Z" fill="black"/>
</svg>

