<svg width="30" height="75" viewBox="0 0 30 75" fill="none" xmlns="http://www.w3.org/2000/svg">
<rect width="30" height="75" fill="#7D6CD5"/>
<path d="M19.372 29.2173H17.7782C17.7328 28.956 17.649 28.7244 17.5268 28.5227C17.4047 28.3182 17.2527 28.1449 17.0708 28.0028C16.889 27.8608 16.6816 27.7543 16.4487 27.6832C16.2186 27.6094 15.97 27.5724 15.7029 27.5724C15.2285 27.5724 14.8081 27.6918 14.4416 27.9304C14.0751 28.1662 13.7882 28.5128 13.5808 28.9702C13.3734 29.4247 13.2697 29.9801 13.2697 30.6364C13.2697 31.304 13.3734 31.8665 13.5808 32.3239C13.791 32.7784 14.0779 33.1222 14.4416 33.3551C14.8081 33.5852 15.2271 33.7003 15.6987 33.7003C15.96 33.7003 16.2044 33.6662 16.4316 33.598C16.6618 33.527 16.8677 33.4233 17.0495 33.2869C17.2342 33.1506 17.389 32.983 17.514 32.7841C17.6419 32.5852 17.7299 32.358 17.7782 32.1023L19.372 32.1108C19.3123 32.5256 19.1831 32.9148 18.9842 33.2784C18.7882 33.642 18.5311 33.9631 18.2129 34.2415C17.8947 34.517 17.5226 34.733 17.0964 34.8892C16.6703 35.0426 16.1973 35.1193 15.6774 35.1193C14.9103 35.1193 14.2257 34.9418 13.6234 34.5866C13.0211 34.2315 12.5467 33.7188 12.2001 33.0483C11.8535 32.3778 11.6802 31.5739 11.6802 30.6364C11.6802 29.696 11.8549 28.892 12.2044 28.2244C12.5538 27.554 13.0297 27.0412 13.6319 26.6861C14.2342 26.331 14.916 26.1534 15.6774 26.1534C16.1632 26.1534 16.6149 26.2216 17.0325 26.358C17.4501 26.4943 17.8223 26.6946 18.149 26.9588C18.4757 27.2202 18.7441 27.5412 18.9544 27.9219C19.1674 28.2997 19.3066 28.7315 19.372 29.2173ZM12.2848 50V49.0156L16.7592 42.598H12.2592V41.2727H18.7195V42.2571L14.2493 48.6747H18.745V50H12.2848Z" fill="black"/>
</svg>
