<svg width="30" height="30" viewBox="0 0 30 30" fill="none" xmlns="http://www.w3.org/2000/svg">
<rect width="30" height="30" fill="#E88670"/>
<path d="M16.2072 13.6719C16.1674 13.2997 15.9998 13.0099 15.7044 12.8026C15.4118 12.5952 15.0311 12.4915 14.5623 12.4915C14.2328 12.4915 13.9501 12.5412 13.7143 12.6406C13.4785 12.7401 13.2981 12.875 13.1731 13.0455C13.0481 13.2159 12.9842 13.4105 12.9814 13.6293C12.9814 13.8111 13.0225 13.9687 13.1049 14.1023C13.1902 14.2358 13.3052 14.3494 13.4501 14.4432C13.595 14.5341 13.7555 14.6108 13.9316 14.6733C14.1078 14.7358 14.2853 14.7884 14.4643 14.831L15.2825 15.0355C15.612 15.1122 15.9288 15.2159 16.2328 15.3466C16.5396 15.4773 16.8137 15.642 17.0552 15.8409C17.2995 16.0398 17.4927 16.2798 17.6348 16.5611C17.7768 16.8423 17.8478 17.1719 17.8478 17.5497C17.8478 18.0611 17.7172 18.5114 17.4558 18.9006C17.1944 19.2869 16.8166 19.5895 16.3223 19.8082C15.8308 20.0241 15.2356 20.1321 14.5368 20.1321C13.8578 20.1321 13.2683 20.027 12.7683 19.8168C12.2711 19.6065 11.8819 19.2997 11.6007 18.8963C11.3223 18.4929 11.1717 18.0014 11.149 17.4219H12.7044C12.7271 17.7259 12.8208 17.9787 12.9856 18.1804C13.1504 18.3821 13.3649 18.5327 13.6291 18.6321C13.8961 18.7315 14.1944 18.7812 14.524 18.7812C14.8677 18.7812 15.1689 18.7301 15.4274 18.6278C15.6887 18.5227 15.8933 18.3778 16.041 18.1932C16.1887 18.0057 16.264 17.7869 16.2669 17.5369C16.264 17.3097 16.1973 17.1222 16.0666 16.9744C15.9359 16.8239 15.7527 16.6989 15.5169 16.5994C15.2839 16.4972 15.0112 16.4062 14.6987 16.3267L13.7058 16.071C12.987 15.8864 12.4189 15.6065 12.0012 15.2315C11.5865 14.8537 11.3791 14.3523 11.3791 13.7273C11.3791 13.2131 11.5183 12.7628 11.7967 12.3764C12.0779 11.9901 12.46 11.6903 12.943 11.4773C13.426 11.2614 13.9728 11.1534 14.5836 11.1534C15.2029 11.1534 15.7456 11.2614 16.2115 11.4773C16.6802 11.6903 17.0481 11.9872 17.3152 12.3679C17.5822 12.7457 17.72 13.1804 17.7285 13.6719H16.2072Z" fill="black"/>
</svg>
