<svg width="30" height="30" viewBox="0 0 30 30" fill="none" xmlns="http://www.w3.org/2000/svg">
<circle cx="15" cy="15" r="15" fill="#FF5555"/>
<path d="M15 19.1193C14.358 19.1193 13.8111 18.9446 13.3594 18.5952C12.9077 18.2429 12.5625 17.733 12.3239 17.0653C12.0852 16.3949 11.9659 15.5852 11.9659 14.6364C11.9659 13.6932 12.0852 12.8878 12.3239 12.2202C12.5653 11.5497 12.9119 11.0384 13.3636 10.6861C13.8182 10.331 14.3636 10.1534 15 10.1534C15.6364 10.1534 16.1804 10.331 16.6321 10.6861C17.0866 11.0384 17.4332 11.5497 17.6719 12.2202C17.9134 12.8878 18.0341 13.6932 18.0341 14.6364C18.0341 15.5852 17.9148 16.3949 17.6761 17.0653C17.4375 17.733 17.0923 18.2429 16.6406 18.5952C16.1889 18.9446 15.642 19.1193 15 19.1193ZM15 18.1818C15.6364 18.1818 16.1307 17.875 16.483 17.2614C16.8352 16.6477 17.0114 15.7727 17.0114 14.6364C17.0114 13.8807 16.9304 13.2372 16.7685 12.706C16.6094 12.1747 16.3793 11.7699 16.0781 11.4915C15.7798 11.2131 15.4205 11.0739 15 11.0739C14.3693 11.0739 13.8764 11.3849 13.5213 12.0071C13.1662 12.6264 12.9886 13.5028 12.9886 14.6364C12.9886 15.392 13.0682 16.0341 13.2273 16.5625C13.3864 17.0909 13.6151 17.4929 13.9134 17.7685C14.2145 18.044 14.5767 18.1818 15 18.1818Z" fill="black"/>
</svg>

