<svg width="30" height="30" viewBox="0 0 30 30" fill="none" xmlns="http://www.w3.org/2000/svg">
<circle cx="15" cy="15" r="15" fill="#9887AB"/>
<path d="M16.7301 21.4545V17.9943H16.6449C16.571 18.1136 16.4659 18.2642 16.3295 18.446C16.1932 18.625 15.9986 18.7855 15.7457 18.9276C15.4929 19.0668 15.1563 19.1364 14.7358 19.1364C14.1903 19.1364 13.7088 18.9986 13.2912 18.723C12.8736 18.4446 12.5469 18.0526 12.3111 17.5469C12.0753 17.0384 11.9574 16.4375 11.9574 15.7443C11.9574 15.0568 12.0753 14.4602 12.3111 13.9545C12.5469 13.4489 12.875 13.0582 13.2955 12.7827C13.7159 12.5071 14.2017 12.3693 14.7528 12.3693C15.179 12.3693 15.5156 12.4403 15.7628 12.5824C16.0128 12.7216 16.2031 12.8807 16.3338 13.0597C16.4673 13.2358 16.571 13.3807 16.6449 13.4943H16.7642V12.4545H17.7358V21.4545H16.7301ZM14.8722 18.233C15.2756 18.233 15.6165 18.1278 15.8949 17.9176C16.1733 17.7045 16.3849 17.4105 16.5298 17.0355C16.6747 16.6577 16.7472 16.2216 16.7472 15.7273C16.7472 15.2386 16.6761 14.8111 16.5341 14.4446C16.392 14.0753 16.1818 13.7884 15.9034 13.5838C15.625 13.3764 15.2813 13.2727 14.8722 13.2727C14.446 13.2727 14.0909 13.3821 13.8068 13.6009C13.5256 13.8168 13.3139 14.1108 13.1719 14.483C13.0327 14.8523 12.9631 15.267 12.9631 15.7273C12.9631 16.1932 13.0341 16.6165 13.1761 16.9972C13.321 17.375 13.5341 17.6761 13.8153 17.9006C14.0994 18.1222 14.4517 18.233 14.8722 18.233Z" fill="black"/>
</svg>

