<svg width="30" height="75" viewBox="0 0 30 75" fill="none" xmlns="http://www.w3.org/2000/svg">
<rect width="30" height="75" fill="#E2FFA4"/>
<path d="M17.2072 13.6719C17.1674 13.2997 16.9998 13.0099 16.7044 12.8026C16.4118 12.5952 16.0311 12.4915 15.5623 12.4915C15.2328 12.4915 14.9501 12.5412 14.7143 12.6406C14.4785 12.7401 14.2981 12.875 14.1731 13.0455C14.0481 13.2159 13.9842 13.4105 13.9814 13.6293C13.9814 13.8111 14.0225 13.9687 14.1049 14.1023C14.1902 14.2358 14.3052 14.3494 14.4501 14.4432C14.595 14.5341 14.7555 14.6108 14.9316 14.6733C15.1078 14.7358 15.2853 14.7884 15.4643 14.831L16.2825 15.0355C16.612 15.1122 16.9288 15.2159 17.2328 15.3466C17.5396 15.4773 17.8137 15.642 18.0552 15.8409C18.2995 16.0398 18.4927 16.2798 18.6348 16.5611C18.7768 16.8423 18.8478 17.1719 18.8478 17.5497C18.8478 18.0611 18.7172 18.5114 18.4558 18.9006C18.1944 19.2869 17.8166 19.5895 17.3223 19.8082C16.8308 20.0241 16.2356 20.1321 15.5368 20.1321C14.8578 20.1321 14.2683 20.027 13.7683 19.8168C13.2711 19.6065 12.8819 19.2997 12.6007 18.8963C12.3223 18.4929 12.1717 18.0014 12.149 17.4219H13.7044C13.7271 17.7259 13.8208 17.9787 13.9856 18.1804C14.1504 18.3821 14.3649 18.5327 14.6291 18.6321C14.8961 18.7315 15.1944 18.7812 15.524 18.7812C15.8677 18.7812 16.1689 18.7301 16.4274 18.6278C16.6887 18.5227 16.8933 18.3778 17.041 18.1932C17.1887 18.0057 17.264 17.7869 17.2669 17.5369C17.264 17.3097 17.1973 17.1222 17.0666 16.9744C16.9359 16.8239 16.7527 16.6989 16.5169 16.5994C16.2839 16.4972 16.0112 16.4062 15.6987 16.3267L14.7058 16.071C13.987 15.8864 13.4189 15.6065 13.0012 15.2315C12.5865 14.8537 12.3791 14.3523 12.3791 13.7273C12.3791 13.2131 12.5183 12.7628 12.7967 12.3764C13.0779 11.9901 13.46 11.6903 13.943 11.4773C14.426 11.2614 14.9728 11.1534 15.5836 11.1534C16.2029 11.1534 16.7456 11.2614 17.2115 11.4773C17.6802 11.6903 18.0481 11.9872 18.3152 12.3679C18.5822 12.7457 18.72 13.1804 18.7285 13.6719H17.2072ZM12.1564 35L9.69336 26.2727H11.3936L12.9661 32.6861H13.0471L14.726 26.2727H16.2729L17.9561 32.6903H18.0328L19.6053 26.2727H21.3056L18.8425 35H17.2828L15.5357 28.8764H15.4675L13.7161 35H12.1564ZM13.1397 50H11.4522L14.5247 41.2727H16.4764L19.5531 50H17.8656L15.5346 43.0625H15.4664L13.1397 50ZM13.1951 46.5781H17.7974V47.848H13.1951V46.5781ZM12.4995 65V56.2727H15.7722C16.4426 56.2727 17.0051 56.3977 17.4597 56.6477C17.9171 56.8977 18.2623 57.2415 18.4952 57.679C18.731 58.1136 18.8489 58.608 18.8489 59.1619C18.8489 59.7216 18.731 60.2187 18.4952 60.6534C18.2594 61.0881 17.9114 61.4304 17.4512 61.6804C16.9909 61.9276 16.4242 62.0511 15.7509 62.0511H13.5819V60.7514H15.5378C15.9299 60.7514 16.2509 60.6832 16.5009 60.5469C16.7509 60.4105 16.9355 60.223 17.0549 59.9844C17.177 59.7457 17.2381 59.4716 17.2381 59.1619C17.2381 58.8523 17.177 58.5795 17.0549 58.3438C16.9355 58.108 16.7495 57.9247 16.4966 57.794C16.2466 57.6605 15.9242 57.5938 15.5293 57.5938H14.0804V65H12.4995Z" fill="black"/>
</svg>

